# AST/ASF file generated using VICON BodyLanguage
# -----------------------------------------------
:version 1.10
:name VICON
:units
  mass 1.0
  length 0.45
  angle deg
:documentation
   .ast/.asf automatically generated from VICON data using
   VICON BodyBuilder and BodyLanguage model FoxedUp or BRILLIANT.MOD
:root
   order TX TY TZ RX RY RZ
   axis XYZ
   position 0 0 0  
   orientation 0 0 0 
:bonedata
  begin
     id 1 
     name lhipjoint
     direction 0.547975 -0.797114 0.253638 
     length 2.36201 
     axis 0 0 0  XYZ
  end
  begin
     id 2 
     name lfemur
     direction 0.34202 -0.939693 0  
     length 7.69075  
     axis 0 0 20  XYZ
    dof rx ry rz
    limits (-160.0 20.0)
           (-70.0 70.0)
           (-60.0 70.0)
  end
  begin
     id 3 
     name ltibia
     direction 0.34202 -0.939693 0   
     length 7.91399   
     axis 0 0 20   XYZ
    dof rx
    limits (-10.0 170.0)
  end
  begin
     id 4 
     name lfoot
     direction 0.0705293 -0.193778 0.978507   
     length 2.13618   
     axis -90 7.62852e-016 20   XYZ
    dof rx rz
    limits (-45.0 90.0)
           (-70.0 20.0)
  end
  begin
     id 5 
     name ltoes
     direction 1.53592e-011 -4.21925e-011 1   
     length 1.07518   
     axis -90 7.62852e-016 20   XYZ
    dof rx
    limits (-90.0 20.0)
  end
  begin
     id 6 
     name rhipjoint
     direction -0.57 -0.782963 0.249136   
     length 2.4047  
     axis 0 0 0  XYZ 
  end
  begin
     id 7 
     name rfemur
     direction -0.34202 -0.939693 0   
     length 7.51486   
     axis 0 0 -20   XYZ
    dof rx ry rz
    limits (-160.0 20.0)
           (-70.0 70.0)
           (-70.0 60.0)
  end
  begin
     id 8 
     name rtibia
     direction -0.34202 -0.939693 0   
     length 8.08317   
     axis 0 0 -20   XYZ
    dof rx
    limits (-10.0 170.0)
 end
 begin
     id 9 
     name rfoot
     direction -0.104954 -0.281256 0.953876   
     length 2.30343  
     axis -90 -7.62852e-016 -20   XYZ
    dof rx rz
    limits (-45.0 90.0)
           (-20.0 70.0)
  end
  begin
     id 10 
     name rtoes
     direction -1.53556e-011 -4.21922e-011 1   
     length 1.14803   
     axis -90 -7.62852e-016 -20   XYZ
    dof rx
    limits (-90.0 20.0)
  end
  begin
     id 11 
     name lowerback
     direction -0.0152855 0.99353 -0.11254   
     length 2.05311   
     axis 0 0 0   XYZ
    dof rx ry rz
    limits (-20.0 45.0)
           (-30.0 30.0)
           (-30.0 30.0)
  end
  begin
     id 12 
     name upperback
     direction -0.00157509 0.999443 -0.033332   
     length 2.06353   
     axis 0 0 0   XYZ
    dof rx ry rz
    limits (-20.0 45.0)
           (-30.0 30.0)
           (-30.0 30.0)
  end
  begin
     id 13 
     name thorax
     direction 0.00577788 0.999804 0.0189484   
     length 2.08472   
     axis 0 0 0   XYZ
    dof rx ry rz
    limits (-20.0 45.0)
           (-30.0 30.0)
           (-30.0 30.0)
  end
  begin
     id 14 
     name lowerneck
     direction -1.09301e-005 0.994719 0.10264   
     length 1.76249   
     axis 0 0 0   XYZ
    dof rx ry rz
    limits (-20.0 45.0)
           (-30.0 30.0)
           (-30.0 30.0)
  end
  begin
     id 15 
     name upperneck
     direction 0.0495018 0.988526 -0.142706   
     length 1.77897   
     axis 0 0 0   XYZ
    dof rx ry rz
    limits (-20.0 45.0)
           (-30.0 30.0)
           (-30.0 30.0)
  end
  begin
     id 16
     name head
     direction 0.0142736 0.998114 -0.0597101  
     length 1.78934  
     axis 0 0 0   XYZ
    dof rx ry rz
    limits (-20.0 45.0)
           (-30.0 30.0)
           (-30.0 30.0)
  end
  begin
     id 17 
     name lclavicle
     direction 0.918111 0.396107 -0.0130883  
     length 3.37276  
     axis 0 0 0   XYZ
    dof ry rz
    limits (-20.0 10.0)
           (0.0 20.0)
  end
  begin
     id 18 
     name lhumerus
     direction 1 -4.48975e-011 -3.26108e-027   
     length 5.34298   
     axis 180 -30 -90   XYZ
    dof rx ry rz
    limits (-60.0 90.0)
           (-90.0 90.0)
           (-90.0 90.0)
  end
  begin
     id 19
     name lradius
     direction 1 -4.48964e-011 -8.84413e-028   
     length 3.67262   
     axis 180 -30 -90   XYZ
    dof rx
    limits (-10.0 170.0)
  end
  begin
     id 20
     name lwrist
     direction 1 -4.48991e-011 -1.24264e-027   
     length 1.83631   
     axis -2.17013e-015 90 90   XYZ
    dof ry
    limits (-180.0 0.0)
 end
  begin
     id 21 
     name lhand
     direction 1 -4.48855e-011 -2.48528e-027   
     length 0.599298   
     axis 1.58582e-015 90 90   XYZ
    dof rx rz
    limits (-90.0 90.0)
           (-45.0 45.0)
  end
  begin
     id 22 
     name lfingers
     direction 1 -4.48811e-011 -4.97056e-027   
     length 0.48317   
     axis 3.17164e-015 90 90   XYZ
    dof rx
    limits (0.0 90.0)
  end
  begin
     id 23
     name lthumb
     direction 0.707107 -6.34882e-011 0.707107   
     length 0.693738   
     axis -90 45 2.85299e-015   XYZ
    dof rx rz
    limits (-45.0 45.0)
           (-45.0 45.0)
  end
  begin
     id 24 
     name rclavicle
     direction -0.920511 0.384752 -0.0680135   
     length 3.43787  
     axis 0 0 0   XYZ 
    dof ry rz
    limits (-10.0 20.0)
           (-20.0 0.0)
  end
  begin
     id 25 
     name rhumerus
     direction -0.999976 -0.00330524 0.00603274  
     length 5.5498   
     axis 180 30 90   XYZ
    dof rx ry rz
    limits (-90.0 60.0)
           (-90.0 90.0)
           (-90.0 90.0)
  end
  begin
     id 26 
     name rradius
     direction -1 -4.48967e-011 8.62438e-027   
     length 3.69401   
     axis 180 30 90   XYZ
    dof rx
    limits (-10.0 170.0)
  end
  begin
     id 27 
     name rwrist
     direction -1 -4.4897e-011 9.54866e-027   
     length 1.84701   
     axis -7.69462e-015 -90 -90   XYZ
    dof ry
    limits (-180.0 0.0)
  end
  begin
     id 28
     name rhand
     direction -1 -4.48982e-011 1.90973e-026   
     length 0.638113   
     axis -1.21857e-014 -90 -90   XYZ
    dof rx rz
    limits (-90.0 90.0)
           (-45.0 45.0)
  end
  begin
     id 29
     name rfingers
     direction -1 -4.48936e-011 3.81946e-026   
     length 0.514463   
     axis -2.43714e-014 -90 -90   XYZ
    dof rx
    limits (0.0 90.0)
  end
  begin
     id 30
     name rthumb
     direction -0.707107 -6.34942e-011 0.707107   
     length 0.738669   
     axis -90 -45 -2.85299e-015   XYZ
    dof rx rz
    limits (-45.0 45.0)
           (-45.0 45.0)
  end
:hierarchy
  begin
    root lhipjoint rhipjoint lowerback
    lhipjoint lfemur
    lfemur ltibia
    ltibia lfoot
    lfoot ltoes
    rhipjoint rfemur
    rfemur rtibia
    rtibia rfoot
    rfoot rtoes
    lowerback upperback
    upperback thorax
    thorax lowerneck lclavicle rclavicle
    lowerneck upperneck
    upperneck head
    lclavicle lhumerus
    lhumerus lradius
    lradius lwrist
    lwrist lhand lthumb
    lhand lfingers
    rclavicle rhumerus
    rhumerus rradius
    rradius rwrist
    rwrist rhand rthumb
    rhand rfingers
  end

#!OML:ASF F:\twosubjects\two\Thursday\Session 1\Rory.ASF
:FULLY-SPECIFIED
:DEGREES
220
root 18.0436 12.8639 9.90822 -57.453 -81.2636 18.9839
lowerback 20.6348 1.26979 0.239487
upperback 15.4528 0.433929 -0.720727
thorax 5.37593 -0.288696 -1.02837
lowerneck -6.22953 -2.45866 -6.00263
upperneck 19.6067 -4.18968 6.46566
head 7.26795 -2.04184 2.75456
rclavicle -8.27131e-015 -1.13307e-014
rhumerus -4.71748 4.47461 -91.5958
rradius 77.3181
rwrist -25.0117
rhand 3.12411 11.6602
rfingers 7.12502
rthumb 28.5791 -16.1751
lclavicle -8.27131e-015 -1.13307e-014
lhumerus -17.9068 -24.8538 91.8424
lradius 69.0065
lwrist -16.7874
lhand 1.66664 33.1004
lfingers 7.12502
lthumb 27.1857 61.1619
rfemur -23.9464 7.41589 -1.00063
rtibia 38.582
rfoot 0.520225 -29.6313
rtoes 49.6877
lfemur -21.5025 -4.71291 -9.74527
ltibia 28.7237
lfoot 28.7974 4.86568
ltoes 9.68624
221
root 18.0332 12.8534 9.90762 -56.9927 -81.3245 18.601
lowerback 20.5483 1.27471 0.36144
upperback 15.453 0.462923 -0.725579
thorax 5.4222 -0.261384 -1.10617
lowerneck -6.09955 -2.61339 -6.03451
upperneck 19.198 -4.3873 6.54315
head 7.12813 -2.13158 2.76729
rclavicle 7.45443e-016 -4.42296e-015
rhumerus -4.57214 4.15117 -91.5205
rradius 77.6385
rwrist -26.0575
rhand 5.44383 10.7173
rfingers 7.12502
rthumb 30.7932 -16.7234
lclavicle 7.45443e-016 -4.42296e-015
lhumerus -17.8903 -24.98 91.798
lradius 69.0478
lwrist -16.8238
lhand 1.40302 32.869
lfingers 7.12502
lthumb 26.9335 60.9697
rfemur -24.0279 7.33084 -0.897209
rtibia 38.5797
rfoot 0.574566 -29.557
rtoes 49.0807
lfemur -21.6233 -4.56065 -9.66152
ltibia 28.8418
lfoot 28.8341 4.81303
ltoes 10.3051
222
root 18.0227 12.8364 9.90617 -55.4441 -81.735 17.2089
lowerback 20.5043 1.29533 0.798354
upperback 15.412 0.561663 -0.655219
thorax 5.40775 -0.17464 -1.29021
lowerneck -6.3309 -2.70688 -5.94673
upperneck 19.1014 -4.50014 6.53312
head 7.14417 -2.17252 2.7364
rclavicle -2.09469e-014 -8.84592e-015
rhumerus -4.46495 4.02043 -91.3324
rradius 77.9411
rwrist -26.8303
rhand 8.47944 9.99068
rfingers 7.12502
rthumb 33.6828 -16.8629
lclavicle -2.09469e-014 -8.84592e-015
lhumerus -17.8136 -25.2554 91.6582
lradius 69.0773
lwrist -16.7792
lhand 1.19675 32.647
lfingers 7.12502
lthumb 26.7361 60.7779
rfemur -24.2827 7.51134 -0.432817
rtibia 38.5872
rfoot 0.46679 -29.6424
rtoes 49.2245
lfemur -21.9387 -4.14582 -9.20647
ltibia 28.9698
lfoot 29.1167 3.7433
ltoes 7.84628
223
root 18.0356 12.8482 9.90237 -54.9737 -82.0049 16.7043
lowerback 20.6002 1.36886 0.975461
upperback 15.4364 0.678104 -0.582852
thorax 5.3951 -0.106874 -1.33054
lowerneck -6.72063 -2.7023 -5.7482
upperneck 19.1481 -4.44532 6.28
head 7.21624 -2.14162 2.62056
rclavicle -5.64673e-015 -1.77415e-014
rhumerus -4.4054 4.01338 -91.1634
rradius 78.2628
rwrist -27.335
rhand 6.02102 11.2662
rfingers 7.12502
rthumb 31.3434 -16.0692
lclavicle -5.64673e-015 -1.77415e-014
lhumerus -17.7231 -25.396 91.5842
lradius 69.1375
lwrist -17.0329
lhand 1.69075 32.4511
lfingers 7.12502
lthumb 27.2088 60.509
rfemur -24.278 7.77141 -0.13517
rtibia 38.5273
rfoot 0.481713 -29.723
rtoes 49.3425
lfemur -21.8914 -4.2723 -8.82047
ltibia 29.0431
lfoot 28.8726 4.38186
ltoes 9.65236
224
root 18.0348 12.853 9.90005 -55.5427 -81.9731 17.14
lowerback 20.6651 1.35945 0.784382
upperback 15.4353 0.632517 -0.547758
thorax 5.35467 -0.150556 -1.17903
lowerneck -6.41295 -2.66553 -5.74946
upperneck 18.7335 -4.35 6.13388
head 7.01818 -2.11184 2.58269
rclavicle -1.05294e-015 8.54774e-015
rhumerus -4.55123 4.28922 -91.0972
rradius 78.6288
rwrist -28.0875
rhand 18.1978 8.47191
rfingers 7.12502
rthumb 42.8526 -15.8259
lclavicle -1.05294e-015 8.54774e-015
lhumerus -17.907 -25.1079 91.6544
lradius 69.2025
lwrist -17.587
lhand 2.71065 32.2732
lfingers 7.12502
lthumb 28.184 60.1743
rfemur -24.1187 7.75282 -0.143515
rtibia 38.5012
rfoot 0.694491 -29.6293
rtoes 49.0099
lfemur -21.7294 -4.40627 -8.86099
ltibia 29.1105
lfoot 28.7522 4.39201
ltoes 9.43914
225
root 18.0344 12.8509 9.89864 -55.0803 -81.9976 16.6457
lowerback 20.7184 1.30658 0.796554
upperback 15.3857 0.568264 -0.517374
thorax 5.26881 -0.183126 -1.14309
lowerneck -5.80609 -2.72913 -6.01657
upperneck 17.9991 -4.43432 6.40616
head 6.69135 -2.1586 2.71289
rclavicle -1.84823e-014 2.32081e-014
rhumerus -4.61508 4.1729 -91.1037
rradius 78.9076
rwrist -29.0049
rhand 26.4168 5.15673
rfingers 7.12502
rthumb 50.4586 -15.8218
lclavicle -1.84823e-014 2.32081e-014
lhumerus -18.0805 -24.9964 91.6927
lradius 69.1952
lwrist -17.6002
lhand 2.89411 32.2371
lfingers 7.12502
lthumb 28.3594 60.1092
rfemur -24.0514 7.76859 -0.0507339
rtibia 38.4482
rfoot 0.790281 -29.719
rtoes 48.9093
lfemur -21.6804 -4.40698 -8.80081
ltibia 29.0438
lfoot 28.7833 4.6501
ltoes 9.8793
226
root 18.0344 12.8477 9.89861 -54.0717 -82.0316 15.6026
lowerback 20.7915 1.24834 0.877156
upperback 15.3782 0.502194 -0.477574
thorax 5.22338 -0.213334 -1.13571
lowerneck -5.34903 -2.80845 -6.37035
upperneck 17.2409 -4.53385 6.77236
head 6.39151 -2.2077 2.88495
rclavicle -1.58593e-014 1.72943e-014
rhumerus -4.52294 3.96073 -90.9952
rradius 79.1418
rwrist -30.019
rhand 7.74224 10.9652
rfingers 7.12502
rthumb 32.9819 -16.0389
lclavicle -1.58593e-014 1.72943e-014
lhumerus -18.0351 -24.8809 91.7808
lradius 69.0702
lwrist -17.0004
lhand 2.13313 32.3939
lfingers 7.12502
lthumb 27.6319 60.3848
rfemur -24.0159 7.61605 0.0970376
rtibia 38.4729
rfoot 1.04921 -29.7434
rtoes 48.9466
lfemur -21.6632 -4.40556 -8.68636
ltibia 28.9759
lfoot 28.6271 5.23335
ltoes 11.6868
227
root 18.0366 12.8489 9.9045 -54.8362 -81.7728 16.3053
lowerback 20.9188 1.26931 0.684473
upperback 15.4093 0.49516 -0.550697
thorax 5.19283 -0.231832 -1.10576
lowerneck -5.40093 -2.89077 -6.40315
upperneck 16.992 -4.63234 6.85829
head 6.3315 -2.24733 2.90878
rclavicle 2.35995e-014 1.67476e-014
rhumerus -4.42357 3.84699 -90.8742
rradius 79.4351
rwrist -30.9354
rhand 18.0464 8.19165
rfingers 7.12502
rthumb 42.711 -16.1556
lclavicle 2.35995e-014 1.67476e-014
lhumerus -17.8918 -24.869 91.8657
lradius 68.9862
lwrist -16.6349
lhand 1.57415 32.7685
lfingers 7.12502
lthumb 27.0972 60.8438
rfemur -23.9278 7.40924 -0.219718
rtibia 38.5071
rfoot 1.41606 -29.5268
rtoes 49.0074
lfemur -21.5767 -4.52139 -9.00671
ltibia 28.9071
lfoot 28.4332 5.48745
ltoes 12.1733
228
root 18.0347 12.8506 9.91072 -55.1833 -81.4461 16.6425
lowerback 20.9541 1.38067 0.55832
upperback 15.4866 0.618337 -0.624522
thorax 5.26628 -0.176879 -1.13447
lowerneck -5.70073 -3.1436 -6.24694
upperneck 16.9039 -4.9904 6.97494
head 6.38093 -2.39319 2.88778
rclavicle 8.0733e-015 -1.52195e-014
rhumerus -4.26021 3.37143 -90.786
rradius 79.7214
rwrist -31.3343
rhand 20.137 7.16907
rfingers 7.12502
rthumb 44.6627 -16.4621
lclavicle 8.0733e-015 -1.52195e-014
lhumerus -17.6534 -25.3684 91.8348
lradius 68.9699
lwrist -16.5816
lhand 1.57952 33.038
lfingers 7.12502
lthumb 27.1024 61.1125
rfemur -23.8684 7.23058 -0.584761
rtibia 38.5935
rfoot 1.61282 -29.3198
rtoes 49.0705
lfemur -21.6259 -4.5714 -9.41124
ltibia 28.9254
lfoot 28.6768 4.50525
ltoes 9.38599
229
root 18.0291 12.8465 9.90904 -53.5729 -81.4764 15.0165
lowerback 20.9564 1.40287 0.744945
upperback 15.5128 0.676321 -0.57017
thorax 5.30058 -0.134085 -1.1902
lowerneck -5.67058 -3.34188 -6.20139
upperneck 16.602 -5.27721 7.16035
head 6.30407 -2.51512 2.91652
rclavicle 5.22334e-015 -7.52276e-015
rhumerus -4.20161 3.0238 -90.6982
rradius 79.9548
rwrist -31.3142
rhand 17.048 8.24583
rfingers 7.12502
rthumb 41.7758 -16.4189
lclavicle 5.22334e-015 -7.52276e-015
lhumerus -17.5629 -25.6915 91.8144
lradius 68.9109
lwrist -16.5342
lhand 1.54562 32.9949
lfingers 7.12502
lthumb 27.07 61.0745
rfemur -23.871 7.11141 -0.3477
rtibia 38.6784
rfoot 1.60923 -29.4611
rtoes 48.828
lfemur -21.6277 -4.68369 -9.20098
ltibia 28.9691
lfoot 28.7336 4.45362
ltoes 10.2232
